Coordinates
version=1
nRows=31
nColumns=13
inDegrees=yes

Units are S.I. units (second, meters, Newtons, ...)
If the header above contains a line with 'inDegrees', this indicates whether rotational values are in degrees (yes) or radians (no).

endheader
time	bJoint_3	seatpos	hipangle	kneeangle	footangle	lbackangle	uarmleft_out	uarmleft_trn	uarmleft_up	uarmright_out	uarmright_trn	uarmright_up
      3.48500000	      0.00000000	     -0.00791037	     89.51492678	     12.39277130	     11.90769808	    -29.13712189	     46.56127532	     14.71470715	      0.00000000	     50.36409325	     14.54135626	     -0.00000000
      3.49000000	      0.00000000	     -0.00897353	     88.89491170	     13.55305321	     12.44796491	    -28.77464330	     46.05847293	     15.33865189	      0.00000000	     49.86826054	     14.96970087	     -0.00000000
      3.49500000	      0.00000000	     -0.01004746	     88.31865191	     14.63236169	     12.95101360	    -28.41324450	     45.55199091	     15.76407082	      0.00000000	     49.36896231	     15.59858148	     -0.00000000
      3.50000000	      0.00000000	     -0.01112757	     87.77930545	     15.64332045	     13.42262590	    -27.98375389	     45.27899660	     16.18696933	      0.00000000	     48.93360483	     16.05539147	     -0.00000000
      3.50500000	      0.00000000	     -0.01171499	     87.50020526	     16.16676687	     13.66697213	    -27.56554734	     44.75444342	     16.61554736	      0.00000000	     48.41661237	     16.48796834	     -0.00000000
      3.51000000	      0.00000000	     -0.01284527	     86.98726436	     17.12930179	     14.11656614	    -27.19761769	     44.24739323	     17.24684840	      0.00000000	     48.08882271	     16.89029394	     -0.00000000
      3.51500000	      0.00000000	     -0.01389976	     86.53357904	     17.98120745	     14.51478649	    -26.83398567	     43.72268586	     17.67645830	      0.00000000	     47.57290844	     17.52167129	     -0.00000000
      3.52000000	      0.00000000	     -0.01496954	     86.09439524	     18.80638437	     14.90077962	    -26.40137385	     43.25350204	     18.14158803	      0.00000000	     46.98718629	     17.93820599	     -0.00000000
      3.52500000	      0.00000000	     -0.01596834	     85.70115483	     19.54565533	     15.24681015	    -26.03822252	     42.71189067	     18.57082651	      0.00000000	     46.45427374	     18.37138729	     -0.00000000
      3.53000000	      0.00000000	     -0.01702016	     85.30258504	     20.29534486	     15.59792989	    -25.66897746	     42.17699546	     19.00722053	      0.00000000	     46.10237107	     18.77085273	     -0.00000000
      3.53500000	      0.00000000	     -0.01804106	     84.92939098	     20.99766708	     15.92705806	    -25.23052589	     41.56866259	     19.42321222	      0.00000000	     45.63366413	     19.24405602	     -0.00000000
      3.54000000	      0.00000000	     -0.01908664	     84.55973946	     21.69366734	     16.25340680	    -24.78647097	     41.26484304	     20.05788221	      0.00000000	     45.16777791	     19.91974558	     -0.00000000
      3.54500000	      0.00000000	     -0.02099964	     83.91256125	     22.91303264	     16.82559389	    -24.49285747	     40.75882672	     20.50603873	      0.00000000	     44.54117641	     20.31707555	     -0.00000000
      3.55000000	      0.00000000	     -0.02203773	     83.57543317	     23.54863731	     17.12407048	    -24.04552324	     40.14197784	     20.93112065	      0.00000000	     44.24154943	     20.76053185	     -0.00000000
      3.55500000	      0.00000000	     -0.02301344	     83.26667842	     24.13099543	     17.39767385	    -23.60562747	     39.62590688	     21.41192091	      0.00000000	     43.61214191	     21.18431603	     -0.00000000
      3.56000000	      0.00000000	     -0.02495168	     82.67449620	     25.24859932	     17.92309552	    -23.30196830	     39.18076825	     21.76644419	      0.00000000	     43.11864929	     21.64907492	     -0.00000000
      3.56500000	      0.00000000	     -0.02630206	     82.27698332	     25.99929482	     18.27627814	    -22.89704144	     38.67210128	     22.25294658	      0.00000000	     42.67485947	     22.03133040	     -0.00000000
      3.57000000	      0.00000000	     -0.02818285	     81.74175325	     27.01067822	     18.75243148	    -22.53035178	     38.07214449	     22.68715027	      0.00000000	     42.22021224	     22.72298981	     -0.00000000
      3.57500000	      0.00000000	     -0.02918991	     81.46324964	     27.53722204	     19.00047168	    -22.07270537	     37.73555907	     23.14696227	      0.00000000	     41.76536219	     23.11705711	     -0.00000000
      3.58000000	      0.00000000	     -0.03103873	     80.96535434	     28.47902233	     19.44437667	    -21.71090056	     37.11641700	     23.57734078	      0.00000000	     41.29158524	     23.61922491	     -0.00000000
      3.58500000	      0.00000000	     -0.03319920	     80.40361528	     29.54230977	     19.94592506	    -21.38880579	     36.62203290	     24.07218671	      0.00000000	     40.68625515	     24.05213732	     -0.00000000
      3.59000000	      0.00000000	     -0.03421704	     80.14584813	     30.03047995	     20.17632808	    -20.91685852	     36.15813353	     24.47986652	      0.00000000	     40.22816622	     24.45918506	     -0.00000000
      3.59500000	      0.00000000	     -0.03606315	     79.68869281	     30.89665455	     20.58534736	    -20.55505833	     35.52079252	     24.91274341	      0.00000000	     39.73732620	     24.96867274	     -0.00000000
      3.60000000	      0.00000000	     -0.03822021	     79.17021798	     31.87962133	     21.04983930	    -20.14509458	     34.94670718	     25.40616199	      0.00000000	     39.37034867	     25.41533346	     -0.00000000
      3.60500000	      0.00000000	     -0.04009440	     78.73233261	     32.71030378	     21.44263639	    -19.77765269	     34.61801994	     25.87620113	      0.00000000	     38.74150018	     25.86492107	     -0.00000000
      3.61000000	      0.00000000	     -0.04225657	     78.24052991	     33.64381805	     21.88434796	    -19.42728297	     33.99246693	     26.32746251	      0.00000000	     38.31712140	     26.27014908	     -0.00000000
      3.61500000	      0.00000000	     -0.04410662	     77.83024635	     34.42304064	     22.25328699	    -19.06585300	     33.32990546	     26.76389690	      0.00000000	     37.80380914	     26.78962709	     -0.00000000
      3.62000000	      0.00000000	     -0.04622661	     77.37115899	     35.29543067	     22.66658966	    -18.64162137	     32.92901543	     27.22668272	      0.00000000	     37.42152442	     27.25178042	     -0.00000000
      3.62500000	      0.00000000	     -0.04811472	     76.97156817	     36.05517162	     23.02673979	    -18.26955473	     32.26396342	     27.67695565	      0.00000000	     36.77343908	     27.71165551	     -0.00000000
      3.63000000	      0.00000000	     -0.05020720	     76.53825656	     36.87945719	     23.41771376	    -17.84255438	     31.84787691	     28.14368432	      0.00000000	     36.37705760	     28.17823730	     -0.00000000
      3.63500000	      0.00000000	     -0.05210072	     76.15425384	     37.61031780	     23.76457164	    -17.47112087	     31.16857870	     28.59607292	      0.00000000	     35.71542928	     28.64111187	     -0.00000000
